<?xml version="1.0" standalone="no"?>
<!DOCTYPE svg PUBLIC "-//W3C//DTD SVG 20010904//EN"
 "http://www.w3.org/TR/2001/REC-SVG-20010904/DTD/svg10.dtd">
<svg version="1.0" xmlns="http://www.w3.org/2000/svg"
 width="70.000000pt" height="70.000000pt" viewBox="0 0 70.000000 70.000000"
 preserveAspectRatio="xMidYMid meet">
<metadata>
Created by potrace 1.11, written by Peter Selinger 2001-2013
</metadata>
<g transform="translate(0.000000,70.000000) scale(0.100000,-0.100000)"
fill="#000000" stroke="none">
<path d="M262 594 c-116 -43 -189 -191 -150 -305 60 -178 281 -233 412 -103
95 96 95 252 0 348 -66 65 -177 91 -262 60z m149 -35 c103 -35 167 -146 140
-246 -23 -85 -88 -144 -174 -159 -117 -19 -237 85 -237 206 0 139 141 242 271
199z"/>
<path d="M282 498 c-7 -7 -12 -31 -12 -55 0 -39 -2 -43 -25 -43 -34 0 -32 -21
10 -90 19 -32 35 -65 35 -74 0 -13 12 -16 66 -16 l65 0 15 37 c37 87 31 142
-18 161 -64 26 -78 36 -78 52 0 18 -19 40 -35 40 -6 0 -16 -5 -23 -12z m28
-58 c0 -37 4 -50 14 -50 8 0 17 10 19 23 l4 22 8 -22 c7 -23 25 -32 25 -13 0
6 5 10 10 10 6 0 10 -9 10 -20 0 -11 5 -20 10 -20 6 0 10 7 10 16 0 8 5 12 10
9 15 -9 12 -70 -6 -115 -16 -39 -17 -40 -65 -40 -27 0 -49 4 -49 10 0 5 -16
34 -35 64 -38 60 -40 66 -25 66 6 0 16 -12 23 -27 11 -25 12 -20 15 55 3 88
22 116 22 32z"/>
</g>
</svg>
